<svg width="1440" height="140" viewBox="0 0 1440 140" fill="none" xmlns="http://www.w3.org/2000/svg">
<mask id="mask0_1780_51809" style="mask-type:alpha" maskUnits="userSpaceOnUse" x="0" y="0" width="306" height="140">
<rect width="306" height="140" fill="#D9D9D9"/>
</mask>
<g mask="url(#mask0_1780_51809)">
<rect width="453.013" height="209.899" rx="100" transform="matrix(-0.866025 -0.5 -0.5 0.866025 315.27 -24.4937)" fill="#FBE8EF"/>
</g>
<mask id="mask1_1780_51809" style="mask-type:alpha" maskUnits="userSpaceOnUse" x="1166" y="0" width="274" height="140">
<rect x="1166" width="274" height="140" fill="#D9D9D9"/>
</mask>
<g mask="url(#mask1_1780_51809)">
<rect x="1668.54" y="-69.2222" width="453.013" height="209.899" rx="100" transform="rotate(150 1668.54 -69.2222)" fill="#FBE8EF"/>
<path d="M1339.43 22.6296L1301.96 45.8311L1319.45 102.275L1356.18 62.9797L1339.43 22.6296Z" fill="#F9F9F9"/>
<path d="M1439.72 3.70461C1439.72 3.70461 1374.48 0.134033 1364.51 9.13791C1354.55 18.1317 1349.33 24.1356 1353.16 35.6013L1356.99 47.0771C1356.99 47.0771 1362.22 46.1837 1362.28 43.1868L1363.68 47.3929C1363.68 47.3929 1368.72 47.8346 1369.29 43.8227L1370.89 48.6051C1370.89 48.6051 1376.88 48.7258 1376.11 44.5227L1377.9 49.8814C1377.9 49.8814 1386 49.9401 1383.05 39.8661L1382.22 36.7383L1384.71 35.2669C1384.71 35.2669 1393.63 42.9166 1406.7 35.5726L1452.71 42.6584L1439.7 3.71137L1439.72 3.70461Z" fill="#F2B0C6"/>
<path d="M1411.23 22.6384C1411.23 22.6384 1413.19 28.9308 1406.38 35.6673" stroke="#222222" stroke-width="0.5" stroke-miterlimit="10"/>
<path d="M1384.39 35.3641C1384.39 35.3641 1386.18 33.0706 1385.88 28.3817" stroke="#222222" stroke-width="0.5" stroke-miterlimit="10"/>
<path d="M1388.72 29.5652C1388.72 29.5652 1388.44 31.9083 1385.47 32.8879" stroke="#222222" stroke-width="0.5" stroke-miterlimit="10"/>
<path d="M1374.34 25.1892C1374.34 25.1892 1371.8 32.4319 1373.34 37.2582C1374.88 42.0811 1375.85 45.0739 1375.85 45.0739" stroke="#222222" stroke-width="0.5" stroke-miterlimit="10"/>
<path d="M1366.71 23.1388C1366.56 23.5366 1364.75 30.2327 1366.15 34.4388C1367.56 38.6449 1368.96 43.9197 1368.96 43.9197" stroke="#222222" stroke-width="0.5" stroke-miterlimit="10"/>
<path d="M1359.99 21.9086C1359.99 21.9086 1357.77 29.451 1359.07 33.3437C1360.37 37.2364 1361.96 43.2897 1361.96 43.2897" stroke="#222222" stroke-width="0.5" stroke-miterlimit="10"/>
<path d="M1347.61 58.5849C1346.83 57.7981 1346.83 56.5224 1347.61 55.7356C1348.4 54.9488 1349.68 54.9488 1350.46 55.7356C1351.25 56.5224 1351.25 57.7981 1350.46 58.5849C1349.68 59.3717 1348.4 59.3717 1347.61 58.5849Z" fill="#222222"/>
<path d="M1337.87 35.9688C1337.08 35.1819 1337.08 33.9063 1337.87 33.1194C1338.66 32.3326 1339.93 32.3326 1340.72 33.1194C1341.51 33.9063 1341.51 35.1819 1340.72 35.9688C1339.93 36.7556 1338.66 36.7556 1337.87 35.9688Z" fill="#222222"/>
<path d="M1373.15 70.0534L1350.63 27.57L1347.38 29.2887L1339.42 22.6252L1356.18 62.9753L1364.78 64.5507L1373.15 70.0534Z" fill="#F8D2DE"/>
<path d="M1373.15 70.0566C1373.15 70.0566 1347.97 114.628 1347.68 114.341C1347.39 114.055 1319.45 102.273 1319.45 102.273L1356.18 62.9785L1364.77 64.5464L1373.13 70.0566L1373.15 70.0566Z" fill="#E4E4E4"/>
<path d="M1364.78 64.5533L1340.93 98.8505" stroke="#222222" stroke-width="0.5" stroke-miterlimit="10"/>
<path d="M1347.68 114.342L1340.93 98.8513L1319.45 102.274" stroke="#222222" stroke-width="0.5" stroke-miterlimit="10"/>
<path d="M1349.04 57.1615C1362.12 57.0409 1374.77 42.8396 1374.77 42.8396C1374.77 42.8396 1373.1 52.8197 1368.47 60.8701" stroke="#222222" stroke-width="0.5" stroke-miterlimit="10"/>
<path d="M1352.76 23.9144C1352.76 23.9144 1344.28 27.4044 1339.21 34.4599" stroke="#222222" stroke-width="0.5" stroke-miterlimit="10"/>
<path d="M1287.5 34.9612L1287.35 35.7591L1286.74 36.2906C1286.55 36.4418 1286.63 36.7476 1286.87 36.7857L1287.67 36.9387L1288.2 37.5532C1288.35 37.739 1288.66 37.6571 1288.69 37.4206L1288.85 36.6226L1289.46 36.0912C1289.65 35.9399 1289.57 35.6341 1289.33 35.596L1288.53 35.4431L1288 34.8285C1287.85 34.6427 1287.54 34.7247 1287.5 34.9612Z" fill="#FFA3A9"/>
<path d="M1292.02 43.195L1291.78 44.4606L1290.8 45.2999C1290.51 45.5498 1290.64 46.0304 1291.02 46.1008L1292.28 46.3391L1293.12 47.316C1293.37 47.6081 1293.85 47.4793 1293.92 47.1014L1294.16 45.8358L1295.14 44.9966C1295.43 44.7466 1295.3 44.2661 1294.92 44.1956L1293.66 43.9573L1292.82 42.9804C1292.57 42.6884 1292.09 42.8172 1292.02 43.195Z" fill="#FFA3A9"/>
<path d="M1298.51 29.7319L1298.12 31.8338L1296.5 33.2215C1296.01 33.6412 1296.23 34.4328 1296.85 34.5467L1298.95 34.9355L1300.34 36.5615C1300.76 37.0499 1301.55 36.83 1301.67 36.2064L1302.06 34.1044L1303.68 32.7167C1304.17 32.2971 1303.95 31.5054 1303.33 31.3916L1301.23 31.0027L1299.84 29.3768C1299.42 28.8883 1298.63 29.1083 1298.51 29.7319Z" fill="#FFA3A9"/>
<path d="M1365.48 130.315L1365.81 129.569L1366.52 129.183C1366.73 129.075 1366.72 128.759 1366.5 128.671L1365.75 128.349L1365.37 127.634C1365.26 127.42 1364.94 127.433 1364.85 127.656L1364.53 128.402L1363.82 128.788C1363.6 128.895 1363.62 129.211 1363.84 129.3L1364.59 129.622L1364.97 130.337C1365.08 130.551 1365.39 130.537 1365.48 130.315Z" fill="#FFA3A9"/>
<path d="M1362.86 121.302L1363.36 120.118L1364.5 119.51C1364.84 119.329 1364.82 118.832 1364.46 118.682L1363.28 118.175L1362.67 117.04C1362.49 116.7 1361.99 116.722 1361.84 117.076L1361.34 118.26L1360.2 118.868C1359.86 119.048 1359.88 119.545 1360.24 119.696L1361.42 120.203L1362.03 121.338C1362.21 121.677 1362.71 121.656 1362.86 121.302Z" fill="#FFA3A9"/>
<path d="M1353.6 133.037L1354.44 131.069L1356.33 130.066C1356.89 129.762 1356.85 128.942 1356.27 128.696L1354.3 127.861L1353.3 125.973C1352.99 125.406 1352.17 125.449 1351.93 126.033L1351.09 128.001L1349.2 129.004C1348.64 129.308 1348.68 130.128 1349.26 130.375L1351.23 131.209L1352.23 133.097C1352.54 133.665 1353.36 133.621 1353.6 133.037Z" fill="#FFA3A9"/>
</g>
</svg>
